<svg xmlns="http://www.w3.org/2000/svg" viewBox="0 0 500 500"><defs><style>.tscls1{fill:#3178c6}.tscls2{fill:#fff;fill-rule:evenodd}</style></defs><g id="Layer_6" data-name="Layer 6"><circle cx="250" cy="250" r="250"/><rect class="tscls1" x="104" y="109" width="295.33" height="295.33" rx="13.84"/><path class="tscls2" d="M275.34 338.5v32.36A68.25 68.25.0 0 0 294 376.93a122 122 0 0 0 22.63 2 105.62 105.62.0 0 0 22-2.22 53.88 53.88.0 0 0 18.3-7.33 37.37 37.37.0 0 0 12.46-13.35q4.58-8.25 4.58-20.38a41.64 41.64.0 0 0-2.62-15.42 36 36 0 0 0-7.56-11.78 55.15 55.15.0 0 0-11.85-9.26 125 125 0 0 0-15.58-7.73Q330 288.84 325 286.37a57.42 57.42.0 0 1-8.57-5.06 21.94 21.94.0 0 1-5.44-5.46 11.48 11.48.0 0 1-1.92-6.52 11 11 0 0 1 1.71-6 15 15 0 0 1 4.84-4.6 26 26 0 0 1 7.67-3 44.12 44.12.0 0 1 10.08-1.06 64.36 64.36.0 0 1 8.52.6 68.24 68.24.0 0 1 9 1.87 63.66 63.66.0 0 1 8.83 3.19 48.42 48.42.0 0 1 7.91 4.45V234.54a78.47 78.47.0 0 0-16.08-4.2 130.79 130.79.0 0 0-20-1.36 92.2 92.2.0 0 0-21.77 2.48 55.35 55.35.0 0 0-18.1 7.73 38.65 38.65.0 0 0-12.35 13.4q-4.54 8.14-4.54 19.47.0 14.46 8.32 24.68T308.31 314q6.66 2.73 12.41 5.36a68.53 68.53.0 0 1 9.93 5.46 25.94 25.94.0 0 1 6.6 6.17 12.53 12.53.0 0 1 2.42 7.58 11.64 11.64.0 0 1-1.51 5.82 13.55 13.55.0 0 1-4.59 4.65 25.15 25.15.0 0 1-7.66 3.08 46 46 0 0 1-10.74 1.12 60.9 60.9.0 0 1-20.77-3.7A62 62 0 0 1 275.34 338.5zM221 258H263.2V231.29H145.53V258h42v118.7H221z"/></g></svg>