<svg xmlns="http://www.w3.org/2000/svg" viewBox="0 0 500 500"><defs><style>.phpcls1{fill:#007aff}.phpcls2{fill:#fff}</style></defs><g id="Layer_3" data-name="Layer 3"><circle cx="250" cy="250" r="250"/><g id="comp_256-php"><path class="phpcls1" d="M249.67 128.92c-127 0-230 54.12-230 121s103 121 230 121 230-54.12 230-121S376.67 128.92 249.67 128.92z"/><path class="phpcls2" d="M175.73 239.93C170.05 269 150 266 125.35 266l9.84-50.74c27.32.0 45.86-2.95 40.54 24.65zM88.91 317.41h26.37l6.26-32.2c29.54.0 47.87 2.16 64.83-13.73 18.76-17.25 23.64-47.94 10.28-63.32-7-8-18.19-12-33.43-12H112.41zM222.38 163.89h26.23l-6.25 32.2c22.64.0 43.63-1.66 53.76 7.69 10.64 9.77 5.54 22.28-6 81.29H263.56c11.07-57.07 13.15-61.81 9.13-66.13-3.88-4.16-12.72-3.3-34.07-3.3l-13.51 69.43H198.87l23.51-121.18zm159.49 76C376.12 269.47 355.49 266 331.48 266l9.85-50.74C368.79 215.28 387.19 212.33 381.87 239.93zM295 317.41h26.45l6.26-32.2c31.05.0 48.22 1.8 64.83-13.73 18.76-17.25 23.64-47.94 10.28-63.32-7-8-18.19-12-33.43-12H318.62z"/></g></g></svg>