<svg xmlns="http://www.w3.org/2000/svg" viewBox="0 0 500 500"><defs><style>.jquerycls{fill:#474747}.jquerycls2{fill:#fff}</style></defs><g id="Layer_5" data-name="Layer 5"><circle cx="250" cy="250" r="250"/><path class="jquerycls" d="M134.32 183.88c-23.06 33.13-20.2 76.22-2.57 111.4.4.86.84 1.68 1.28 2.49a15.5 15.5.0 0 0 .84 1.62 8 8 0 0 0 .51.9c.28.57.58 1.11.88 1.65l1.7 2.88c.32.53.62 1.05 1 1.59.6 1 1.3 2 1.92 3 .28.42.54.85.86 1.27 1.05 1.65 2.18 3.26 3.37 4.82.84 1.16 1.69 2.29 2.6 3.42.3.42.62.83.93 1.24l2.4 2.92c.29.34.58.73.9 1.08 1.06 1.28 2.19 2.53 3.32 3.79.0.0.0.0.06.08a34.09 34.09.0 0 0 4.6 4.78c.87.89 1.74 1.78 2.66 2.65l1.1 1.05c1.21 1.13 2.41 2.26 3.68 3.34.0.0.0.0.06.0l.62.54c1.1 1 2.22 1.93 3.36 2.82l1.36 1.15c.92.73 1.88 1.44 2.83 2.17l1.47 1.13c1 .76 2.09 1.51 3.12 2.25.38.27.76.54 1.15.79l.32.25 3.05 2 1.3.87c1.6 1 3.18 2 4.76 2.94.46.23.91.48 1.34.74 1.17.67 2.39 1.36 3.57 2 .65.37 1.32.68 2 1s1.66.9 2.53 1.36a2.9 2.9.0 0 1 .61.25c.36.16.69.33 1 .51 1.3.65 2.66 1.27 4.07 1.89a5.9 5.9.0 0 1 .83.37c1.56.68 3.13 1.33 4.75 2 .36.11.76.3 1.14.44 1.46.55 3 1.12 4.46 1.65l.54.19c1.67.57 3.31 1.11 5 1.63.39.11.79.25 1.2.36 1.73.52 3.4 1.14 5.14 1.48 111.45 20.31 143.84-67 143.84-67-27.21 35.43-75.49 44.77-121.22 34.38-1.7-.39-3.39-.94-5.1-1.44-2.06-.61-4.12-1.26-6.16-2l-.67-.26c-1.48-.5-2.9-1.06-4.34-1.61-.4-.16-.8-.31-1.2-.44-1.6-.65-3.15-1.31-4.69-2-.34-.11-.62-.26-1-.39-1.31-.61-2.62-1.22-3.92-1.85-.4-.17-.76-.36-1.15-.56-1-.48-2-1-3-1.55-.69-.33-1.36-.67-2-1-1.23-.65-2.46-1.36-3.68-2-.37-.26-.8-.48-1.22-.72q-2.4-1.42-4.76-2.92c-.44-.27-.86-.56-1.28-.86-1.15-.71-2.28-1.45-3.39-2.24-.38-.25-.73-.52-1.12-.79-1.08-.75-2.14-1.51-3.19-2.3-.46-.37-.95-.72-1.44-1.09-.95-.75-1.92-1.46-2.87-2.26l-1.29-1q-1.84-1.49-3.62-3.05a3.29 3.29.0 0 0-.41-.33L185.28 304l-1.09-1c-.89-.9-1.8-1.77-2.72-2.66l-1.05-1.09q-1.72-1.71-3.36-3.51l-.16-.17c-1.15-1.26-2.27-2.54-3.4-3.84-.29-.34-.56-.7-.87-1.06l-2.45-3q-1.89-2.4-3.7-4.86c-25.36-34.63-34.54-82.42-14.24-121.62M205.87 156c-16.72 24-15.77 56.08-2.76 81.45a99.89 99.89.0 0 0 7.35 12.3c2.5 3.58 5.26 7.82 8.61 10.71 1.16 1.32 2.42 2.61 3.73 3.9l1 1c1.24 1.19 2.51 2.36 3.8 3.53l.17.14c1.46 1.28 3 2.51 4.49 3.71.37.25.69.54 1 .79 1.52 1.18 3.05 2.31 4.63 3.43l.17.09c.67.49 1.39.94 2.15 1.42.3.19.65.45 1 .65 1.16.74 2.29 1.43 3.45 2.14.18.07.35.17.52.25 1 .59 2 1.17 3.06 1.7.36.22.71.38 1.08.59.73.36 1.44.74 2.14 1.11l.35.15c1.46.72 3 1.39 4.43 2.06a10.37 10.37.0 0 1 1 .42c1.2.52 2.43 1 3.64 1.48.54.19 1.05.41 1.56.57 1.11.41 2.27.79 3.37 1.17l1.52.49a36.12 36.12.0 0 0 4.86 1.4c86 14.26 106-52 106-52-17.93 25.8-52.64 38.1-89.62 28.5q-2.46-.64-4.87-1.41c-.52-.15-1-.31-1.47-.46-1.13-.39-2.3-.77-3.39-1.19l-1.57-.58c-1.21-.49-2.45-1-3.64-1.47a10.53 10.53.0 0 1-1-.43c-1.53-.69-3.06-1.36-4.53-2.09l-2.24-1.16-1.29-.65c-1-.52-1.93-1.07-2.88-1.63a6.42 6.42.0 0 1-.68-.37c-1.15-.72-2.34-1.41-3.44-2.15-.37-.21-.71-.46-1.05-.67l-2.26-1.48c-1.57-1.09-3.1-2.26-4.64-3.39-.35-.32-.68-.58-1-.86-16.26-12.78-29.09-30.26-35.17-50-6.41-20.57-5-43.64 6.07-62.37m46.56-1.6c-9.86 14.47-10.8 32.44-4 48.39 7.21 16.95 22 30.25 39.14 36.55.71.27 1.39.5 2.12.76l1 .3c1 .31 2 .68 3 .91 47.53 9.17 60.39-24.41 63.86-29.34-11.32 16.25-30.3 20.15-53.58 14.49a49.69 49.69.0 0 1-5.6-1.74 67.37 67.37.0 0 1-6.7-2.76 70.21 70.21.0 0 1-11.73-7.16c-20.86-15.8-33.77-45.95-20.17-70.51"/><path class="jquerycls2" d="M383.91 229.18l-1.57-6.62c-1.23-4.79-4.73-7.06-12.6-7.06H336.65a1.57 1.57.0 0 0-1.68 1.09l-12.56 59.54a4.08 4.08.0 0 0-.12 1.66c.09.39 1.56.32 2.31.32h11.46a12.49 12.49.0 0 0 2.57-.11c.42-.17.61-1.31.77-2.06l4.05-20.88 4.95-23.15a1.78 1.78.0 0 1 1.67-1.35h32.78a1 1 0 0 0 1.06-1.35"/><path class="jquerycls2" d="M430.54 205.05H416a3.3 3.3.0 0 0-2.16 1.45L388.32 244c-.44.63-.93.6-1.1-.14l-1.88-8.23a1.83 1.83.0 0 0-1.7-1.35h-16.4a1 1 0 0 0-1 1.37l7.35 25.77a6.06 6.06.0 0 1 0 2.68L370.2 277.2c-.19.74.28 1 1.06 1h16.19c.76.0 1.55-.22 1.73-1L392.61 264a7.92 7.92.0 0 1 1.18-2.36l41.64-55.23c.47-.6.4-1.33-.36-1.33h-4.53"/><path class="jquerycls2" d="M259.78 215.55H245c-.75.0-1.53.27-1.68 1l-4.89 22.89-4.87 21.92c-.16.74-.91.69-1.68.69h-9.72c-9.63.0-8.52-6.08-6.54-15.19.0-.09 6.18-30.31 6.18-30.31.13-.75-.37-1-1.12-1h-14.1c-.77.0-1.52.27-1.67 1l-5.67 30.28c-2.83 16.38-2.92 30.79 16.07 31.26h30c.77.0 1.53-.25 1.69-1l6.44-30.37 6.41-30.5s.23-.7.0-.7"/><path class="jquerycls2" d="M112.35 215.5H96.48c-.76.0-1.52.18-1.69.93l-2.87 12.39a1.05 1.05.0 0 0 1.1 1.32h15.19a1.88 1.88.0 0 0 1.69-1.43l2.76-12.48s.22-.73-.31-.73"/><path class="jquerycls2" d="M92 234.32a1.83 1.83.0 0 0-1.7 1.35l-2.14 9.45-4.77 21.82s-2.54 11.61-2.78 12.33c0 0-2.14 8.38-7.25 8a44.45 44.45.0 0 1-5.1-.7h0c-1.43-.43-1.53 1.05-1.7 1.79L63.39 302a1.12 1.12.0 0 0 1.06 1.43 104.51 104.51.0 0 0 11.66 1h.79c11.92.0 18.22-7 22.24-26l4.72-22 4.42-20.49a1.1 1.1.0 0 0-1-1.44"/><path class="jquerycls2" d="M304.27 241.61c0 .83-2.61.67-2.61.67l-20.81-.15c-.72.0-.92-1-1-1.73a9 9 0 0 1 .11-1.07c1.61-5.59 6.41-8.77 14-8.77 8.56.0 10.38 4.24 10.38 8.95m-7.15-24.1c-26.7.0-33.07 16.5-36.61 32.85-3.55 16.68-3.25 29.86 24.37 29.86h25.27a1.88 1.88.0 0 0 1.65-1.44l2.71-10.58c.16-.75-.34-1-1.1-1H288.69c-9 0-12.22-2.77-11.91-9 0-.71.81-2.51 1.57-2.51h38.26c1.68.0 1.74-1 1.74-1 3.89-17.58 4.15-37.22-21.11-37.22"/><path class="jquerycls2" d="M167.77 249.77l-3.08 10.51a2 2 0 0 1-1.84 1.23H147c-12 0-15-9.31-12-23.19 2.94-14.2 8.76-23 20.6-23.87 16.2-1.22 19.51 10.22 15.58 23.36l-3.35 12m14.1 11.14s7.47-18.16 9.17-28.66c2.32-14-4.7-34.42-31.87-34.42-27 0-38.73 19.45-43.22 40.6s1.39 39.84 28.24 39.69h41a1.91 1.91.0 0 0 1.73-1.34l3.46-13.16a1 1 0 0 0-1-1.35h-3.3-3.3a.85.85.0 0 1-.94-1 1.18 1.18.0 0 1 .08-.31"/></g></svg>