<svg xmlns="http://www.w3.org/2000/svg" viewBox="0 0 500 500"><defs><style>.cls-1{fill:#e0234e;}</style></defs><g id="Layer_2" data-name="Layer 2"><g id="Layer_7" data-name="Layer 7"><circle cx="250" cy="250" r="250"/><path class="cls-1" d="M280.41,85.38a21.8,21.8,0,0,0-6.93,1.24,19.55,19.55,0,0,1,8.26,11.57c.1.62.27,1.06.36,1.68a9.57,9.57,0,0,1,.19,1.6c.34,7.82-2.06,8.81-3.73,13.43a19,19,0,0,0,1.23,17.51,10.3,10.3,0,0,0,1.06,2c-3.37-22.49,15.4-25.87,18.85-32.9.28-6.14-4.79-10.23-8.79-13.07a19.71,19.71,0,0,0-10.5-3Zm28.27,5.06a11.1,11.1,0,0,0-.17,2.58c-.08.72-.08,1.61-.17,2.31a20.15,20.15,0,0,1-.63,2.14,14.17,14.17,0,0,1-.72,2.14l-1,2c-.29.36-.44.71-.72,1.07l-.53.79c-.42.61-.87,1.2-1.33,1.78a12.25,12.25,0,0,1-1.61,1.61V107c-.53.45-1.06,1-1.69,1.44-1.87,1.42-4,2.48-6,3.81a46.31,46.31,0,0,0-3.47,2.76,14.18,14.18,0,0,0-1.59,1.69,11.78,11.78,0,0,0-1.33,1.78,19.63,19.63,0,0,0-1.25,1.87c-.36.71-.62,1.33-1,2a21,21,0,0,0-.72,2.06c-.23.73-.44,1.47-.61,2.22-.09.36-.09.8-.17,1.15s-.11.71-.19,1.07c0,.72-.09,1.51-.09,2.23a9.43,9.43,0,0,0,.09,1.59,9.28,9.28,0,0,0,.27,2.22,19.94,19.94,0,0,0,.43,2.15c.29.71.46,1.41.72,2.13.19.43.44.89.63,1.25l-20.46-7.92c-3.46-1-6.84-1.87-10.31-2.67l-5.6-1.34c-5.34-1.06-10.76-1.86-16.18-2.39-.19,0-.28-.09-.45-.09a158.67,158.67,0,0,0-27.57-.36c-5.43.36-10.85,1.07-16.27,2q-6,1-12,2.5l-4,1.06c-1.32.53-2.59,1.15-3.82,1.7l-2.94,1.33c-.17.09-.35.09-.43.17-.91.45-1.69.81-2.5,1.25-1.15.51-2.28,1.07-3.38,1.69-.62.26-1.24.62-1.78.89a8.67,8.67,0,0,1-.79.43c-.81.46-1.61.91-2.33,1.35a22.24,22.24,0,0,0-2.12,1.34c-.63.43-1.25.79-1.78,1.23-.08.1-.19.1-.27.19-.53.36-1.15.8-1.69,1.24l-.18.18-1.33,1.06c-.17.1-.36.27-.53.36-.45.36-.89.8-1.34,1.14a1,1,0,0,1-.35.36c-.54.55-1.07,1-1.6,1.52-.1,0-.1.09-.18.18-.56.48-1.09,1-1.6,1.52-.1.08-.1.17-.18.17-.47.46-.91.94-1.34,1.43-.17.18-.43.35-.61.52-.48.56-1,1.1-1.52,1.61-.09.17-.26.27-.35.43-.72.72-1.33,1.43-2,2.15l-.26.26a50.63,50.63,0,0,1-4.55,4.36,49.21,49.21,0,0,1-5,3.92,54.41,54.41,0,0,1-10.93,6,60.44,60.44,0,0,1-5.78,2.13c-3.73.81-7.56,2.31-10.85,2.59a18.89,18.89,0,0,0-2.22.26l-2.22.53-2.14.8c-.72.27-1.42.63-2.12,1s-1.34.81-2,1.25a15.19,15.19,0,0,0-1.78,1.52,14.22,14.22,0,0,0-1.78,1.6,20.5,20.5,0,0,0-1.5,1.78c-.45.71-1,1.33-1.34,2a15.57,15.57,0,0,0-1.25,2c-.36.81-.71,1.53-1,2.31s-.53,1.53-.81,2.31a16.5,16.5,0,0,0-.43,2.16c0,.07-.1.17-.1.25-.17.81-.17,1.87-.27,2.4a11.91,11.91,0,0,0-.17,1.78,9.45,9.45,0,0,0,1.06,4.45v.08a15.54,15.54,0,0,0,1,1.61,17.61,17.61,0,0,0,1.15,1.59,19.31,19.31,0,0,0,1.52,1.44,13.42,13.42,0,0,0,1.68,1.42,20.78,20.78,0,0,0,5.42,3.9c.44.27.89.44,1.43.72.09,0,.18.08.26.08a.78.78,0,0,0,.09.45,18.11,18.11,0,0,0,1.15,4.27c.28.53.46,1.07.71,1.6a1.86,1.86,0,0,0,.29.44c.35.72.7,1.34,1,2l1.33,1.86c.45.53,1,1.15,1.52,1.69s1.07,1,1.7,1.51a.27.27,0,0,0,.17.09,18.36,18.36,0,0,0,1.61,1.25,14,14,0,0,0,2,1.14,14.15,14.15,0,0,0,2,1,10.43,10.43,0,0,0,1.78.62c.1.09.19.09.36.17.36.1.81.19,1.15.27-.26,4.81-.34,9.33.37,10.94.79,1.78,4.71-3.65,8.61-9.87-.52,6.14-.87,13.34,0,15.48s6.31-4.72,11-12.37c63.05-14.58,120.58,29,126.62,90.53-1.14-9.61-13-14.94-18.4-13.6-2.67,6.57-7.2,15-14.49,20.27a57.28,57.28,0,0,0-.89-17.79,57.41,57.41,0,0,1-11,22.41,24.84,24.84,0,0,1-21.33-9.61c-.36-.26-.44-.79-.72-1.15a18.57,18.57,0,0,1-.71-1.86,7.69,7.69,0,0,1-.54-1.87,15.5,15.5,0,0,1-.08-2v-1.33a14.78,14.78,0,0,1,.44-1.86,17.88,17.88,0,0,1,.63-1.87,16.76,16.76,0,0,1,1.07-1.86c1.5-4.28,1.5-7.75-1.25-9.79a10.1,10.1,0,0,0-1.69-.89c-.35-.08-.79-.26-1.15-.36l-.72-.26a13.23,13.23,0,0,0-1.86-.44,6.61,6.61,0,0,0-1.87-.27,16.06,16.06,0,0,0-2-.18c-.45,0-.89.09-1.34.09a7.24,7.24,0,0,0-2,.27,16.11,16.11,0,0,0-1.87.35,15.66,15.66,0,0,0-1.86.63c-.62.26-1.15.53-1.78.8s-1.06.62-1.69.89c-20.72,13.52-8.35,45.17,5.78,54.33-5.34,1-10.76,2.13-12.27,3.29l-.18.17a84.88,84.88,0,0,0,12,6c5.7,1.87,11.74,3.54,14.41,4.26v.09a86,86,0,0,0,22.41,1.6,84.56,84.56,0,0,0,77.54-72.2l.54,2.31c.27,1.6.61,3.3.8,5v.09c.17.8.26,1.61.36,2.32v.35c.08.8.17,1.61.17,2.32.09,1,.17,1.95.17,2.93v1.43c0,.43.1,1,.1,1.41s-.1,1.08-.1,1.61v1.25c0,.61-.08,1.14-.08,1.77a5.27,5.27,0,0,1-.09,1.15c0,.63-.09,1.25-.09,2a2.66,2.66,0,0,0-.08.79l-.29,2a3.1,3.1,0,0,1-.07.8c-.1.89-.27,1.69-.36,2.58v.18l-.53,2.49v.26l-.53,2.4c0,.1-.1.28-.1.36-.17.81-.37,1.61-.62,2.41v.25c-.27.89-.53,1.7-.72,2.5a.28.28,0,0,0-.08.17l-.81,2.67c-.34.89-.61,1.69-1,2.58s-.62,1.78-1,2.59-.71,1.67-1.06,2.58h-.1c-.34.79-.72,1.68-1.15,2.48a3.76,3.76,0,0,1-.27.62c-.09.08-.09.18-.17.27a84.24,84.24,0,0,1-25,29.87c-.72.45-1.42,1-2.14,1.52-.17.17-.43.26-.62.43-.63.47-1.29.92-2,1.35l.26.53h.1l3.73-.53h.08c2.31-.36,4.62-.8,6.93-1.25a15.1,15.1,0,0,0,2-.44l1.25-.27c.62-.09,1.23-.26,1.86-.35s1.07-.29,1.6-.44A172.8,172.8,0,0,0,294,383.28a142.4,142.4,0,0,1-55.23,45.08,146.61,146.61,0,0,0,30.33-5.25,142.13,142.13,0,0,0,84-67.15,142.07,142.07,0,0,1-23.92,57.19,139.8,139.8,0,0,0,61.19-95.32A142.46,142.46,0,0,1,393,360.68c64.19-89.54,5.33-182.38-19.31-206.82-.08-.19-.17-.28-.17-.45-.09.09-.09.09-.09.17,0-.08,0-.08-.1-.17,0,1.06-.08,2.12-.17,3.2-.25,2-.54,4-.89,5.95s-1,3.92-1.51,5.89-1.33,3.81-2.15,5.68-1.7,3.65-2.65,5.42a67.87,67.87,0,0,1-6.85,9.87c-1.33,1.59-2.75,3-4.18,4.45-.84.77-1.7,1.51-2.59,2.22l-2,1.78a48.62,48.62,0,0,1-5,3.46q-2.55,1.63-5.25,3c-1.87.89-3.73,1.69-5.6,2.49a62,62,0,0,1-11.74,3.2c-2.05.36-4.08.53-6.05.72-1.42.1-2.84.16-4.26.17q-3,0-6.06-.36a60.83,60.83,0,0,1-12-2.39h-.1c2-.19,3.92-.36,5.88-.72a63.52,63.52,0,0,0,11.74-3.2,55.69,55.69,0,0,0,5.59-2.5c1.87-.88,3.56-1.86,5.34-2.92s3.37-2.31,5-3.56a48.13,48.13,0,0,0,4.53-4,49.22,49.22,0,0,0,4.18-4.36c1.33-1.6,2.58-3.2,3.73-4.8.18-.27.37-.63.54-.89.89-1.43,1.78-2.85,2.59-4.27a61.46,61.46,0,0,0,4.79-11.12c.63-1.87,1.07-3.82,1.52-5.78s.72-4,.89-6,.36-4.09.36-6c0-1.43-.1-2.85-.19-4.27q-.27-3-.72-6a60.76,60.76,0,0,0-1.32-6c-.63-1.86-1.25-3.83-2-5.7s-1.59-3.73-2.48-5.5-2-3.56-3-5.26-2.32-3.28-3.56-4.87-2.67-3-4.09-4.55c-.75-.77-1.52-1.51-2.31-2.23-4-3.11-8.18-6-12.37-8.7a14.64,14.64,0,0,0-1.77-.89,34.38,34.38,0,0,0-8.46-3.73Z"/></g></g></svg>