<svg xmlns="http://www.w3.org/2000/svg" xmlns:xlink="http://www.w3.org/1999/xlink" viewBox="0 0 500 500"><defs><style>.cls-1{fill:none;}.cls-2{fill:#699f63;}.cls-3{fill:#fff;}.cls-4{fill:url(#linear-gradient);}.cls-5{clip-path:url(#clip-path);}.cls-6{fill:url(#linear-gradient-2);}.cls-7{fill:url(#linear-gradient-3);}.cls-8{fill:url(#linear-gradient-4);}.cls-9{fill:url(#linear-gradient-5);}.cls-10{fill:url(#linear-gradient-6);}.cls-11{fill:url(#linear-gradient-7);}</style><linearGradient id="linear-gradient" x1="208.88" y1="410.52" x2="170.81" y2="488.17" gradientTransform="translate(0 -211.89)" gradientUnits="userSpaceOnUse"><stop offset="0" stop-color="#41873f"/><stop offset="0.33" stop-color="#418b3d"/><stop offset="0.64" stop-color="#419637"/><stop offset="0.93" stop-color="#3fa92d"/><stop offset="1" stop-color="#3fae2a"/></linearGradient><clipPath id="clip-path"><path class="cls-1" d="M194.3,180.52a5.09,5.09,0,0,0-5.09,0l-42.14,24.31a5.1,5.1,0,0,0-2.54,4.41v48.67a5.09,5.09,0,0,0,2.54,4.4l42.14,24.34a5.09,5.09,0,0,0,5.09,0l42.12-24.34a5.07,5.07,0,0,0,2.54-4.4V209.24a5.1,5.1,0,0,0-2.54-4.41Z"/></clipPath><linearGradient id="linear-gradient-2" x1="185.33" y1="451.15" x2="292.14" y2="372.24" gradientTransform="translate(0 -211.89)" gradientUnits="userSpaceOnUse"><stop offset="0.14" stop-color="#41873f"/><stop offset="0.4" stop-color="#54a044"/><stop offset="0.71" stop-color="#66b848"/><stop offset="0.91" stop-color="#6cc04a"/></linearGradient><linearGradient id="linear-gradient-3" x1="143.04" y1="383.64" x2="240.45" y2="383.64" gradientTransform="translate(0 -211.89)" gradientUnits="userSpaceOnUse"><stop offset="0.09" stop-color="#6cc04a"/><stop offset="0.29" stop-color="#66b848"/><stop offset="0.6" stop-color="#54a044"/><stop offset="0.86" stop-color="#41873f"/></linearGradient><linearGradient id="linear-gradient-4" x1="143.04" y1="445.45" x2="240.45" y2="445.45" xlink:href="#linear-gradient-3"/><linearGradient id="linear-gradient-5" x1="143.04" y1="473.26" x2="240.45" y2="473.26" xlink:href="#linear-gradient-3"/><linearGradient id="linear-gradient-6" x1="143.04" y1="485.83" x2="240.45" y2="485.83" xlink:href="#linear-gradient-3"/><linearGradient id="linear-gradient-7" x1="254.65" y1="408.21" x2="194.57" y2="530.78" xlink:href="#linear-gradient"/></defs><g id="Layer_2" data-name="Layer 2"><circle cx="250" cy="250" r="250"/><path class="cls-2" d="M247.13,388.86a8.39,8.39,0,0,1-4.19-1.13l-13.34-7.89c-2-1.11-1-1.51-.36-1.74a26.64,26.64,0,0,0,6-2.74,1,1,0,0,1,1,.08l10.25,6.08a1.28,1.28,0,0,0,1.23,0l39.95-23.06a1.24,1.24,0,0,0,.61-1.08v-46.1a1.27,1.27,0,0,0-.62-1.1l-39.93-23a1.23,1.23,0,0,0-1.23,0L206.6,310.19a1.27,1.27,0,0,0-.64,1.09v46.1a1.24,1.24,0,0,0,.63,1.07l10.95,6.32c5.94,3,9.57-.52,9.57-4V315.21a1.15,1.15,0,0,1,1.16-1.15h5.07a1.16,1.16,0,0,1,1.16,1.15v45.52c0,7.93-4.32,12.47-11.83,12.47-2.31,0-4.13,0-9.21-2.5l-10.47-6a8.44,8.44,0,0,1-4.19-7.29v-46.1A8.41,8.41,0,0,1,203,304l39.95-23.09a8.74,8.74,0,0,1,8.39,0L291.28,304a8.42,8.42,0,0,1,4.2,7.28v46.1a8.46,8.46,0,0,1-4.2,7.29l-39.95,23.07A8.44,8.44,0,0,1,247.13,388.86Z"/><path class="cls-2" d="M259.47,357.09c-17.48,0-21.15-8-21.15-14.75a1.15,1.15,0,0,1,1.16-1.15h5.16a1.15,1.15,0,0,1,1.15,1c.78,5.25,3.11,7.91,13.68,7.91,8.42,0,12-1.91,12-6.37,0-2.57-1-4.49-14.1-5.77-10.93-1.08-17.69-3.49-17.69-12.24,0-8.06,6.8-12.87,18.19-12.87,12.8,0,19.13,4.45,19.93,14a1.18,1.18,0,0,1-.3.89,1.22,1.22,0,0,1-.85.36h-5.18a1.16,1.16,0,0,1-1.13-.9c-1.24-5.53-4.26-7.3-12.47-7.3-9.19,0-10.26,3.2-10.26,5.6,0,2.91,1.26,3.75,13.67,5.39s18.11,3.92,18.11,12.55S272.13,357.09,259.47,357.09Z"/><path class="cls-2" d="M317.07,308.74a7.7,7.7,0,1,1-7.69-7.7A7.71,7.71,0,0,1,317.07,308.74Zm-14.15,0a6.46,6.46,0,1,0,6.43-6.44A6.46,6.46,0,0,0,302.92,308.72Zm3.56-4.3h3c1,0,3,0,3,2.29a2,2,0,0,1-1.63,2.11c1.19.09,1.27.86,1.43,2a8.14,8.14,0,0,0,.45,2.28h-1.84c0-.41-.32-2.61-.32-2.73-.12-.49-.29-.73-.9-.73h-1.5v3.46h-1.68v-8.64Zm1.63,3.79h1.35a1.16,1.16,0,0,0,1.3-1.22c0-1.18-.81-1.18-1.26-1.18h-1.39v2.4Z"/><path class="cls-3" d="M123.42,208.48a5.13,5.13,0,0,0-2.56-4.45L78.51,179.66a5.11,5.11,0,0,0-2.34-.68h-.43a5.15,5.15,0,0,0-2.34.68L31,204a5.15,5.15,0,0,0-2.56,4.45l.09,65.63a2.51,2.51,0,0,0,1.28,2.21,2.46,2.46,0,0,0,2.54,0l25.17-14.41a5.15,5.15,0,0,0,2.56-4.44V226.81a5.09,5.09,0,0,1,2.56-4.43L73.4,216.2a5.09,5.09,0,0,1,2.56-.68,5,5,0,0,1,2.54.68l10.72,6.18a5.09,5.09,0,0,1,2.56,4.43v30.66a5.18,5.18,0,0,0,2.56,4.44l25.17,14.41a2.48,2.48,0,0,0,2.55,0,2.56,2.56,0,0,0,1.28-2.21Z"/><path class="cls-3" d="M327.22,118.25a2.56,2.56,0,0,0-3.81,2.24v65a1.79,1.79,0,0,1-2.69,1.55l-10.6-6.11a5.12,5.12,0,0,0-5.12,0l-42.37,24.45a5.12,5.12,0,0,0-2.56,4.43v48.92a5.14,5.14,0,0,0,2.56,4.43L305,287.63a5.14,5.14,0,0,0,5.12,0l42.38-24.47a5.13,5.13,0,0,0,2.55-4.43V136.79a5.13,5.13,0,0,0-2.62-4.47Zm-3.94,124.4a1.27,1.27,0,0,1-.64,1.11l-14.54,8.39a1.32,1.32,0,0,1-1.28,0l-14.55-8.39a1.29,1.29,0,0,1-.64-1.11V225.86a1.29,1.29,0,0,1,.64-1.11l14.55-8.41a1.32,1.32,0,0,1,1.28,0l14.55,8.41a1.29,1.29,0,0,1,.64,1.11v16.79Z"/><path class="cls-3" d="M468.31,225.42a5.13,5.13,0,0,0,2.54-4.43V209.14a5.13,5.13,0,0,0-2.55-4.43l-42.09-24.44a5.14,5.14,0,0,0-5.13,0l-42.36,24.46a5.12,5.12,0,0,0-2.56,4.43v48.9a5.09,5.09,0,0,0,2.59,4.44l42.09,24a5.1,5.1,0,0,0,5,0l25.46-14.15a2.57,2.57,0,0,0,0-4.46l-42.63-24.46a2.58,2.58,0,0,1-1.28-2.22V225.89a2.58,2.58,0,0,1,1.28-2.22L422,216a2.53,2.53,0,0,1,2.55,0l13.27,7.64a2.56,2.56,0,0,1,1.28,2.22V238a2.56,2.56,0,0,0,3.85,2.21Z"/><path class="cls-3" d="M423,223.13a1,1,0,0,1,1,0l8.13,4.69a1,1,0,0,1,.49.85v9.38a1,1,0,0,1-.49.86L424,243.6a1,1,0,0,1-1,0l-8.13-4.69a1,1,0,0,1-.49-.86v-9.38a1,1,0,0,1,.49-.85Z"/><path class="cls-4" d="M194.3,180.52a5.09,5.09,0,0,0-5.09,0l-42.14,24.31a5.1,5.1,0,0,0-2.54,4.41v48.67a5.09,5.09,0,0,0,2.54,4.4l42.14,24.34a5.09,5.09,0,0,0,5.09,0l42.12-24.34a5.07,5.07,0,0,0,2.54-4.4V209.24a5.1,5.1,0,0,0-2.54-4.41Z"/><g class="cls-5"><path class="cls-1" d="M189.12,180.52,146.9,204.83a5.25,5.25,0,0,0-2.72,4.41v48.67a4.88,4.88,0,0,0,1.31,3.23L192.93,180A5.18,5.18,0,0,0,189.12,180.52Z"/><path class="cls-1" d="M193.16,287.14a4.9,4.9,0,0,0,1.19-.49l42.18-24.34a5.2,5.2,0,0,0,2.65-4.4V209.24a5.05,5.05,0,0,0-1.54-3.54Z"/><path class="cls-6" d="M236.5,204.83l-42.25-24.31a5.37,5.37,0,0,0-1.32-.53l-47.44,81.15a5.69,5.69,0,0,0,1.42,1.17l42.32,24.34a5.16,5.16,0,0,0,3.93.49l44.48-81.44A5.73,5.73,0,0,0,236.5,204.83Z"/></g><g class="cls-5"><path class="cls-1" d="M239.18,257.91V209.24a5.21,5.21,0,0,0-2.68-4.41l-42.25-24.31a5.08,5.08,0,0,0-1.55-.57L239,259.08A4.59,4.59,0,0,0,239.18,257.91Z"/><path class="cls-1" d="M146.9,204.83a5.25,5.25,0,0,0-2.72,4.41v48.67a5.28,5.28,0,0,0,2.73,4.4l42.32,24.34a5.19,5.19,0,0,0,3.26.63l-45.34-82.59Z"/><polygon class="cls-7" points="187.8 171.58 187.22 171.91 188 171.91 187.8 171.58"/><path class="cls-8" d="M236.53,262.31a5.37,5.37,0,0,0,2.49-3.23L192.7,180a5.15,5.15,0,0,0-3.58.57l-42,24.17,45.34,82.59a5.19,5.19,0,0,0,1.86-.63Z"/><polygon class="cls-9" points="240.46 261.53 240.18 261.05 240.18 261.69 240.46 261.53"/><path class="cls-10" d="M236.53,262.31l-42.18,24.34a5.19,5.19,0,0,1-1.86.63l.84,1.53,46.85-27.12v-.64l-1.16-2A5.37,5.37,0,0,1,236.53,262.31Z"/><path class="cls-11" d="M236.53,262.31l-42.18,24.34a5.19,5.19,0,0,1-1.86.63l.84,1.53,46.85-27.12v-.64l-1.16-2A5.37,5.37,0,0,1,236.53,262.31Z"/></g></g></svg>