<svg xmlns="http://www.w3.org/2000/svg" viewBox="0 0 500 500"><defs><style>.htmlcls{isolation:isolate}.htmlcls2{fill:#e44d26}.htmlcls2,.htmlcls3,.htmlcls4,.htmlcls5{fill-rule:evenodd}.htmlcls3{fill:#ebebeb}.htmlcls4{fill:#f16529}.htmlcls5{fill:#fff}</style></defs><g id="Layer_4" data-name="Layer 4"><circle cx="250" cy="250" r="250"/><g id="形状_1" data-name="形状 1" class="htmlcls"><g id="形状_1-2" data-name="形状 1"><path class="htmlcls2" d="M104.51 134.53 130.93 430.87 249.49 463.78 368.37 430.82 394.82 134.53H104.51z"/></g></g><g id="形状_1-3" data-name="形状 1" class="htmlcls"><g id="形状_1-4" data-name="形状 1"><path class="htmlcls3" d="M249.67 195.1H158.53l.87 9.76L168.33 305h81.34V268.67h-48.1l-3.32-37.22h51.42zM209 352.17l-2.59-29H170l5.09 57.07 74.45 20.67.17-.05V363.06h-.16z"/></g></g><g id="形状_1-5" data-name="形状 1" class="htmlcls"><g id="形状_1-6" data-name="形状 1"><path class="htmlcls4" d="M249.67 158.76V438.59L345.73 411.95 368.33 158.76H249.67z"/></g></g><g id="形状_1-7" data-name="形状 1" class="htmlcls"><g id="形状_1-8" data-name="形状 1"><path class="htmlcls5" d="M249.54 305h44.75l-4.22 47.14-40.53 10.94V400.9l74.51-20.65.54-6.14 8.55-95.68.88-9.76H249.54V305zm0-109.91v36.35h87.79l.73-8.17 1.65-18.42.87-9.76z"/></g></g><g id="形状_1-9" data-name="形状 1" class="htmlcls"><g id="形状_1-10" data-name="形状 1"><path class="htmlcls5" d="M166.89 72.25H150V54H131.52v55.26H150V90.75h16.9v18.51h18.46V54H166.88V72.25zm26.49.07h16.26v36.94h18.48V72.32h16.26V54h-51zm90.2 1.1L271.73 54H252.48v55.26h18.07V81.87l12.71 19.65h.32l12.71-19.65v27.39h18.39V54H295.41zM342.35 91V54H323.87v55.26h44.45V91z"/></g></g></g></svg>