<svg id="Layer_1" data-name="Layer 1" xmlns="http://www.w3.org/2000/svg" viewBox="0 0 500 500"><defs><style>.cls-1{fill:#61dafb;}</style></defs><circle cx="250" cy="250" r="250"/><circle class="cls-1" cx="250.31" cy="249.74" r="33.2" transform="translate(-36.31 456.81) rotate(-80.78)"/><path class="cls-1" d="M250.31,371.82c26.05,25.35,51.76,40.34,72.46,40.34a35.88,35.88,0,0,0,18.56-4.64c18.56-10.71,25.35-37.48,18.92-75.68-1.07-6.78-2.5-13.56-4.28-20.7,7.14-2.14,13.56-4.28,20-6.43,36.05-13.92,56-33.19,56-54.25,0-21.42-20-40.7-56-54.26a164.66,164.66,0,0,0-20-6.43c1.78-7.14,3.21-13.92,4.28-20.7,6.07-38.91-.71-66-19.28-76.75a35.86,35.86,0,0,0-18.56-4.64c-20.34,0-46.4,15-72.46,40.34-25.7-25.35-51.4-40.34-72.11-40.34a35.9,35.9,0,0,0-18.56,4.64C140.72,103,133.94,129.8,140.36,168c1.07,6.78,2.5,13.56,4.29,20.7-7.14,2.14-13.57,4.29-20,6.43-36.06,13.92-56,33.19-56,54.26,0,21.41,20,40.69,56.05,54.25a164.1,164.1,0,0,0,20,6.43c-1.79,7.14-3.22,13.92-4.29,20.7-6.07,38.2.72,65.33,18.92,75.68a35.9,35.9,0,0,0,18.56,4.64C198.55,411.8,224.25,396.81,250.31,371.82Zm-20-48.19c6.42.36,13.2.36,20,.36s13.56,0,20-.36c-6.43,8.57-13.21,16.42-20,23.92C243.52,340.05,236.74,332.2,230.32,323.63Zm-44.27-36.76c3.57,6.06,6.79,11.78,10.71,17.49-11.06-1.43-21.42-3.22-31.41-5.36,3.21-9.64,6.78-19.63,11.07-29.63C179.27,275.09,182.48,281.15,186.05,286.87Zm-20.7-86c10-2.14,20.35-3.93,31.41-5.36-3.57,5.72-7.14,11.43-10.71,17.49s-6.78,11.78-9.63,17.85A239.15,239.15,0,0,1,165.35,200.84ZM185,249.74c4.64-9.64,9.64-19.27,15.35-28.91,5.36-9.28,11.43-18.56,17.49-27.84,10.71-.72,21.42-1.08,32.49-1.08,11.42,0,22.13.36,32.48,1.08,6.43,9.28,12.14,18.56,17.49,27.84,5.71,9.64,10.71,19.27,15.35,28.91C311,259.38,306,269,300.28,278.66c-5.35,9.28-11.42,18.56-17.49,27.84-10.71.71-21.42,1.07-32.48,1.07-11.43,0-22.13-.36-32.49-1.07-6.42-9.28-12.13-18.56-17.49-27.84C194.62,269,189.62,259.38,185,249.74Zm139.57-19.27-9.63-17.85c-3.57-6.07-6.79-11.78-10.71-17.49,11.06,1.42,21.42,3.21,31.41,5.35C332.41,210.48,328.84,220.47,324.55,230.47Zm0,38.55c4.29,10,7.86,20,11.07,29.63-10,2.14-20.35,3.92-31.41,5.35,3.57-5.71,7.14-11.42,10.71-17.49C318.13,281.15,321.34,275.09,324.55,269Zm8.21,123.86a19.29,19.29,0,0,1-10.35,2.5c-17.49,0-39.26-14.28-60.68-35.69a373.93,373.93,0,0,0,30.34-37.48,327,327,0,0,0,47.83-7.5A182.88,182.88,0,0,1,343.83,334C348.83,364.33,344.9,386.1,332.76,392.88Zm18.57-188.12c40,11.43,63.89,28.92,63.89,45,0,13.92-16.42,27.84-45.33,38.91-5.71,2.14-12.14,4.28-18.56,6.07a376.42,376.42,0,0,0-17.49-45C341,234.39,347,219.4,351.33,204.76ZM322.77,104.1a20.25,20.25,0,0,1,10.35,2.5c11.78,6.78,16.07,28.2,11.07,58.9-1.07,6.07-2.5,12.49-3.93,19.28a459.68,459.68,0,0,0-47.83-7.5,329.83,329.83,0,0,0-30.34-37.48C283.5,118.74,305.28,104.1,322.77,104.1ZM270.3,175.85c-6.43-.36-13.21-.36-20-.36s-13.57,0-20,.36c6.42-8.57,13.2-16.42,20-23.92C257.09,159.43,263.87,167.64,270.3,175.85ZM167.85,106.6a19.39,19.39,0,0,1,10.35-2.5c17.49,0,39.27,14.28,60.68,35.7a374.19,374.19,0,0,0-30.34,37.48,327.21,327.21,0,0,0-47.83,7.5,183.57,183.57,0,0,1-3.93-19.28C151.79,135.16,155.71,113.74,167.85,106.6ZM149.29,294.72c-40-11.42-63.9-28.91-63.9-45,0-13.92,16.42-27.84,45.33-38.91,5.72-2.14,12.14-4.28,18.57-6.07a374.73,374.73,0,0,0,17.49,45A340.93,340.93,0,0,0,149.29,294.72ZM156.78,334c1.07-6.06,2.5-12.49,3.93-19.27a465.51,465.51,0,0,0,47.83,7.5,330.71,330.71,0,0,0,30.34,37.48c-21.41,21.06-43.19,35.69-60.68,35.69a20.15,20.15,0,0,1-10.35-2.5C155.71,386.1,151.79,364.33,156.78,334Z"/></svg>