<svg xmlns="http://www.w3.org/2000/svg" viewBox="0 0 85 214"><defs><style>.lbbtn-1{fill:#a8a8a8;}.lbbtn-2{fill:#5b5b5b;}.lbbtn-3{fill:#fffb66;}</style></defs><g id="Layer_2" data-name="Layer 2"><g id="Layer_1-2" data-name="Layer 1"><rect class="lbbtn-1" width="85" height="214" rx="42.5"/><rect class="lbbtn-2" x="7.5" y="10" width="70" height="194" rx="35"/><path class='lbbtn-44' d="M42,47A23.5,23.5,0,0,0,65.5,23.5a23,23,0,0,0-.64-5.42A34.85,34.85,0,0,0,42.5,10h0a34.87,34.87,0,0,0-23.59,9.15,23.08,23.08,0,0,0-.41,4.35A23.5,23.5,0,0,0,42,47Z"/><path class='lbbtn-22' d="M39.56,63.8,37.69,60h-.08V73.11H34.36V55h3.77l5.46,9.31L45.47,68h.07V55h3.25V73.11H45Z"/><path  class='lbbtn-22' d="M37.46,99.11V96.36h2.39V83.72H37.46V81H45.7v2.76H43.28V96.36H45.7v2.75Z"/><path  class='lbbtn-22' d="M46,122.3h-.11a3.4,3.4,0,0,1-1.47,2.23,5.46,5.46,0,0,1-3.29.9,7.3,7.3,0,0,1-3-.6,6.51,6.51,0,0,1-2.37-1.78,8.62,8.62,0,0,1-1.57-2.93,12.92,12.92,0,0,1-.58-4,12.78,12.78,0,0,1,.59-4,8.27,8.27,0,0,1,1.65-3,6.9,6.9,0,0,1,2.55-1.82,8.37,8.37,0,0,1,3.3-.63,7.73,7.73,0,0,1,4.16,1.07,7.27,7.27,0,0,1,2.71,3.07l-2.79,1.64a5,5,0,0,0-1.47-2,4.12,4.12,0,0,0-2.61-.77,4.35,4.35,0,0,0-3.24,1.23,5,5,0,0,0-1.2,3.65v2.92a5,5,0,0,0,1.22,3.63,4.33,4.33,0,0,0,3.27,1.25,5.63,5.63,0,0,0,1.51-.19,3.55,3.55,0,0,0,1.22-.59,3,3,0,0,0,.84-1,2.86,2.86,0,0,0,.31-1.35v-1.17H42.13v-2.89H49v9.88H46Z"/><path  class='lbbtn-22' d="M45.36,143.44H37.8v7.67H34.36V133H37.8v7.44h7.56V133h3.43v18.15H45.36Z"/><path  class='lbbtn-22' d="M43.29,162v15.1H39.86V162H34.71v-3H48.44v3Z"/><path class="lbbtn-3" d="M33,62.86h8.13a10.6,10.6,0,0,1,3.95.7,8.1,8.1,0,0,1,3.05,2.1,9.54,9.54,0,0,1,1.95,3.48,17.85,17.85,0,0,1,0,9.76,9.59,9.59,0,0,1-1.95,3.49,8.1,8.1,0,0,1-3.05,2.1,10.6,10.6,0,0,1-3.95.7H33Zm8.13,18.59a5.11,5.11,0,0,0,3.76-1.39,5.81,5.81,0,0,0,1.4-4.27V72.26A5.81,5.81,0,0,0,44.89,68a5.07,5.07,0,0,0-3.76-1.39h-3.9V81.45Z"/><path class="lbbtn-3" d="M47.1,126.79l-1.79-5.69H37.37l-1.76,5.69H31.33l7.48-22.33h5.25l7.43,22.33ZM41.41,108.3h-.16l-2.85,9.18h5.89Z"/><path class="lbbtn-3" d="M39.26,168.39v-8.77l-7.65-13.56h4.74l5.15,9.44h.07l5-9.44H51.2l-7.68,13.53v8.8Z"/></g></g></svg>